<svg xmlns="http://www.w3.org/2000/svg" viewBox="0 0 107.59 31.3"><defs><style>.cls-1{fill:#fff;}.cls-2{fill:none;}</style></defs><g id="Calque_2" data-name="Calque 2"><g id="Calque_1-2" data-name="Calque 1"><path class="cls-1" d="M10.34,24.74c-.1-.5-.22-1-.29-1.52a.66.66,0,0,1,.18-.47,22.94,22.94,0,0,0,5.94-11.22,36.25,36.25,0,0,0,.76-6.32C17,3.61,17,2,17,.42V0h2.7l0,.31c.12,2.13.19,4.27.37,6.4A30.91,30.91,0,0,0,26,22.56c1.88,2.57,3.83,5.08,5.75,7.62l.26.33-.28,0c-.9,0-1.8,0-2.69,0a.53.53,0,0,1-.36-.16c-2.05-2.94-4.11-5.87-6.1-8.84a25.34,25.34,0,0,1-4-10.14c-.2-1.17-.36-2.34-.55-3.63a2.85,2.85,0,0,0-.13.36A28,28,0,0,1,14.4,19.39c-.23.39-.49.77-.75,1.14l-.86,1.13.65-.37a7.73,7.73,0,0,1,8.86,1.27A23.52,23.52,0,0,1,25,26c1,1.39,1.9,2.79,2.84,4.19.07.09.12.19.22.34H26.73c-.37,0-.82.11-1.1-.05s-.39-.61-.58-.93l-.69-1.21c-.47.38-.91.76-1.38,1.08a10.46,10.46,0,0,1-6,1.87,18.79,18.79,0,0,1-7.8-1.42,12.15,12.15,0,0,1-6.94-8,18.57,18.57,0,0,1-.74-5.29c0-3,0-6.05,0-9.08V7.1H0V6.64H10.31V7.1H8.9v.4c0,4,0,8,0,12a15.36,15.36,0,0,0,.92,5.86,7.07,7.07,0,0,0,6.35,4.69A9.08,9.08,0,0,0,23.05,28c.74-.63.77-.65.23-1.43a29.14,29.14,0,0,0-2.19-3,5.84,5.84,0,0,0-5-1.81,7.87,7.87,0,0,0-5.57,2.84.47.47,0,0,0-.07.12Z"/><path class="cls-1" d="M49.6,6.61h1.6c0,.11,0,.21,0,.31,0,2.25,0,4.51,0,6.76a3.39,3.39,0,0,1-1.72,3.21,4.88,4.88,0,0,1-2,.57,7,7,0,0,1-2.69-.26,3.27,3.27,0,0,1-2.46-3.28c0-2.36,0-4.73,0-7.1a1.83,1.83,0,0,1,0-.21H44V7q0,3.22,0,6.46a4.28,4.28,0,0,0,.09.94A2,2,0,0,0,45.63,16a4.15,4.15,0,0,0,2.29,0,2.2,2.2,0,0,0,1.67-2.37q0-3.32,0-6.63Z"/><path class="cls-1" d="M44,26.26v4.26H42.32V19.85s0,0,.06,0c1.41,0,2.82,0,4.22,0a2.92,2.92,0,0,1,2.79,1.73,3.19,3.19,0,0,1-2.51,4.63,7.82,7.82,0,0,1-1.08.06ZM44,21v4c.81,0,1.61,0,2.39,0a1.5,1.5,0,0,0,1.37-1.23,3.38,3.38,0,0,0,.08-1.14A1.61,1.61,0,0,0,46.25,21,20.5,20.5,0,0,0,44,21Z"/><path class="cls-1" d="M86,21.93a4.86,4.86,0,0,0-4.34-.85,3.76,3.76,0,0,0-2.81,3.34,5.24,5.24,0,0,0,.32,2.66,3.75,3.75,0,0,0,3.12,2.31,4.74,4.74,0,0,0,3.65-1c.06-.05.12-.08.24-.16,0,.47,0,.9,0,1.32,0,.09-.14.19-.24.26a5,5,0,0,1-2.38.8,6.5,6.5,0,0,1-3.74-.59A5.07,5.07,0,0,1,77,25.58,5.53,5.53,0,0,1,77.92,22a5.46,5.46,0,0,1,4.46-2.36,5.75,5.75,0,0,1,3.37.71.46.46,0,0,1,.28.48C86,21.19,86,21.53,86,21.93Z"/><path class="cls-1" d="M27.48,7.11H25.93V6.63h5v.46H29.43v.45c0,3.08,0,6.16,0,9.23a16.44,16.44,0,0,1-.87,5.47c-.2.56-.47,1.09-.74,1.71-.34-.48-.64-.87-.92-1.28a.34.34,0,0,1,0-.28,12.08,12.08,0,0,0,.65-4.5c0-1.2,0-2.4,0-3.6q0-3.36,0-6.72Z"/><path class="cls-1" d="M59.94,17.33h-1.6c0-.14,0-.26,0-.38V11.79a.89.89,0,0,0-.88-1,3.28,3.28,0,0,0-2.42.6.73.73,0,0,0-.34.68c0,1.63,0,3.26,0,4.89v.4H53.1V9.76l1.51-.08v.86a10.05,10.05,0,0,1,1-.54,4.51,4.51,0,0,1,3.11-.25,1.54,1.54,0,0,1,1.21,1.63v5.95Z"/><path class="cls-1" d="M107.59,13.51h-5.4a2.36,2.36,0,0,0,2.1,2.84,4.27,4.27,0,0,0,3.16-.91c0,.37,0,.72,0,1.06,0,.1-.15.22-.25.29a4.38,4.38,0,0,1-2,.65,5,5,0,0,1-2.31-.22,3.25,3.25,0,0,1-2.1-2.15,4.78,4.78,0,0,1,0-3.19,3.48,3.48,0,0,1,3.53-2.29,6,6,0,0,1,1.27.22,2.66,2.66,0,0,1,1.92,2.35A11.6,11.6,0,0,1,107.59,13.51Zm-1.56-1c-.11-1.29-.71-2-1.74-2a2,2,0,0,0-2.05,2Z"/><path class="cls-1" d="M73.51,13.51a2.47,2.47,0,0,0,2.78,2.87,4,4,0,0,0,2.51-1c0,.41,0,.75,0,1.1a.42.42,0,0,1-.22.27,10.63,10.63,0,0,1-1.54.59,5,5,0,0,1-2.53,0c-2-.56-2.78-2.39-2.6-4.26a5.18,5.18,0,0,1,.3-1.28,3.49,3.49,0,0,1,3.46-2.2,3.58,3.58,0,0,1,2.22.72,3.4,3.4,0,0,1,1,3c0,.23-.19.18-.32.18H73.51Zm.09-1h3.76a1.79,1.79,0,0,0-1.6-2A2,2,0,0,0,73.6,12.52Z"/><path class="cls-1" d="M103.23,26.73H97.85c-.06,1.65.7,2.8,2.46,2.86a3.92,3.92,0,0,0,2.81-1c0,.41,0,.76,0,1.12,0,.09-.13.19-.23.26a4.38,4.38,0,0,1-2,.65,5.19,5.19,0,0,1-2.25-.19,3.29,3.29,0,0,1-2.14-2.08,4.86,4.86,0,0,1-.07-3,3.51,3.51,0,0,1,4-2.52,3,3,0,0,1,2.89,3.44C103.25,26.39,103.24,26.53,103.23,26.73Zm-5.28-1h3.75c-.08-1.37-.73-2-1.94-2A2,2,0,0,0,98,25.73Z"/><path class="cls-1" d="M57.41,29.49c.09.84.13,1-.78,1.15a1.49,1.49,0,0,1-1.88-.84,3,3,0,0,1-2.92.81A2,2,0,0,1,50.22,29a1.94,1.94,0,0,1,1.06-2.19A16.15,16.15,0,0,1,53,26.19a10.28,10.28,0,0,0,1-.42,1,1,0,0,0,.55-1.18c-.07-.38-.37-.59-.92-.64a4.79,4.79,0,0,0-2.94.54,7.31,7.31,0,0,1,0-.94c0-.1.19-.21.31-.27a5.48,5.48,0,0,1,3-.45,5.67,5.67,0,0,1,1.34.31,1.26,1.26,0,0,1,.82,1.29v4.44c0,.77.33,1,1.06.71Zm-2.84-3c-.6.24-1.16.46-1.72.7a3.17,3.17,0,0,0-.76.43,1.18,1.18,0,0,0-.35,1.21,1,1,0,0,0,.72.78A1.82,1.82,0,0,0,54.41,29a.66.66,0,0,0,.15-.33C54.57,28,54.57,27.23,54.57,26.52Z"/><path class="cls-1" d="M71.71,9.74l-.89,2.32-2,5c-.08.2-.17.29-.39.28-.38,0-.77,0-1.15,0a.36.36,0,0,1-.29-.19c-.94-2.4-1.86-4.8-2.78-7.2,0,0,0-.11,0-.2.51,0,1,0,1.5,0,.1,0,.22.17.26.28.58,1.56,1.14,3.11,1.71,4.67l.38,1,1.34-3.59c.26-.71.54-1.43.8-2.15a.29.29,0,0,1,.34-.24Z"/><path class="cls-1" d="M90.38,11.2,90,11.05a4,4,0,0,0-2-.38,2.65,2.65,0,0,0-.62.14.89.89,0,0,0-.63.81.86.86,0,0,0,.52.85c.4.18.83.31,1.23.48a8.41,8.41,0,0,1,1.29.6,1.89,1.89,0,0,1,.89,2,1.85,1.85,0,0,1-1.19,1.64,4.76,4.76,0,0,1-4-.19.49.49,0,0,1-.32-.56c0-.25,0-.51,0-.79.32.17.61.35.91.49a3.39,3.39,0,0,0,2.26.25,1,1,0,0,0,.23-1.86c-.45-.21-.94-.33-1.39-.55a5.45,5.45,0,0,1-1.38-.83A2,2,0,0,1,86.48,10a4.28,4.28,0,0,1,3.09-.19C90.45,10,90.57,10.23,90.38,11.2Z"/><path class="cls-1" d="M67,28.78a4,4,0,0,0,2.59.87,2.77,2.77,0,0,0,.76-.15.88.88,0,0,0,.64-.8.9.9,0,0,0-.46-.92c-.32-.17-.68-.29-1-.44a9.59,9.59,0,0,1-1.58-.76,2,2,0,0,1,.18-3.35,4.29,4.29,0,0,1,3.87,0,.39.39,0,0,1,.17.26,5.14,5.14,0,0,1,0,.68c0,.07,0,.13,0,.18a10,10,0,0,0-1.55-.43,4.06,4.06,0,0,0-1.43.12.76.76,0,0,0-.59.75.83.83,0,0,0,.49.86c.36.17.75.3,1.13.45s.85.33,1.24.54A2.08,2.08,0,0,1,71,30.46a4.91,4.91,0,0,1-3.61-.23c-.3-.13-.51-.3-.44-.69A4.67,4.67,0,0,0,67,28.78Z"/><path class="cls-1" d="M96.11,10.8h-1V9.9l1-.18a6.42,6.42,0,0,0,0-.76.64.64,0,0,1,.52-.82,9.35,9.35,0,0,0,1-.43v2H99.9v1.06H97.73c0,.15,0,.26,0,.36v4.18c0,.73.29,1,1,1a2.1,2.1,0,0,0,1.38-.51c0,.38,0,.71,0,1,0,.09-.12.19-.21.24a3.43,3.43,0,0,1-2.87.17,1.54,1.54,0,0,1-.91-1.57V10.8Z"/><path class="cls-1" d="M95.81,29.17v.41c0,.65,0,.68-.63.89a3.64,3.64,0,0,1-2,.14A1.55,1.55,0,0,1,91.81,29V24h-1c0-.28,0-.52,0-.77a.35.35,0,0,1,.14-.16s.11,0,.16,0c.75-.12.79-.12.74-.86a.71.71,0,0,1,.58-.85c.32-.1.62-.26,1-.42v2h2.2V24h-2.2v4.48c0,.79.28,1.1,1.07,1A8.09,8.09,0,0,0,95.81,29.17Z"/><path class="cls-1" d="M59.94,30.53h-1.6V23h1.52v1l.31-.34a2.38,2.38,0,0,1,2.19-.76c.32.06.51.18.47.56s0,.61,0,.94a2.38,2.38,0,0,0-2,0,1.4,1.4,0,0,0-.92,1.4c0,1.46,0,2.92,0,4.38Z"/><path class="cls-1" d="M80.3,17.32V9.76l1.48-.08v1.08c.25-.24.42-.45.62-.61a2.2,2.2,0,0,1,2-.47.38.38,0,0,1,.34.45c0,.33,0,.65,0,.9a8.11,8.11,0,0,0-1.47,0,2.3,2.3,0,0,0-1,.44,1.12,1.12,0,0,0-.46,1c0,1.5,0,3,0,4.49v.39Z"/><path class="cls-1" d="M92.24,17.32V9.69h1.4c.06,0,.15.12.19.2a.65.65,0,0,1,0,.24v7.18Z"/><path class="cls-1" d="M61.71,9.73h1.55v7.59H61.71Z"/><path class="cls-1" d="M65.37,30.53H63.83V23h1.54Z"/><path class="cls-1" d="M89.49,30.53H88V23h1.54Z"/><path class="cls-1" d="M103.3,8.57c.36-.78.69-1.51,1-2.23a.25.25,0,0,1,.2-.12H106l-.14.26c-.44.62-.89,1.23-1.31,1.86a.52.52,0,0,1-.5.25C103.83,8.56,103.59,8.57,103.3,8.57Z"/><path class="cls-1" d="M101.74,19.42l-1.61,2.27a.25.25,0,0,1-.17.08c-.31,0-.61,0-1,0,.35-.77.67-1.5,1-2.22a.28.28,0,0,1,.21-.12C100.69,19.41,101.17,19.42,101.74,19.42Z"/><path class="cls-1" d="M65.37,21.82H63.83V20.36h1.54Z"/><path class="cls-1" d="M88,20.36h1.53v1.45H88Z"/><path class="cls-1" d="M93.81,8.6H92.25V7.16h1.56Z"/><path class="cls-1" d="M63.26,8.6H61.72V7.15h1.54Z"/><path class="cls-2" d="M44,21a20.5,20.5,0,0,1,2.22,0,1.61,1.61,0,0,1,1.62,1.64,3.38,3.38,0,0,1-.08,1.14A1.5,1.5,0,0,1,46.42,25c-.78.07-1.58,0-2.39,0Z"/><path class="cls-2" d="M106,12.52h-3.79a2,2,0,0,1,2.05-2C105.32,10.56,105.92,11.23,106,12.52Z"/><path class="cls-2" d="M73.6,12.52a2,2,0,0,1,2.16-2,1.79,1.79,0,0,1,1.6,2Z"/><path class="cls-2" d="M98,25.73a2,2,0,0,1,1.81-2c1.21,0,1.86.62,1.94,2Z"/><path class="cls-2" d="M54.57,26.52c0,.71,0,1.45,0,2.18a.66.66,0,0,1-.15.33,1.82,1.82,0,0,1-1.95.61,1,1,0,0,1-.72-.78,1.18,1.18,0,0,1,.35-1.21,3.17,3.17,0,0,1,.76-.43C53.41,27,54,26.76,54.57,26.52Z"/></g></g></svg>