<?xml version="1.0" encoding="utf-8"?>
<!-- Generator: Adobe Illustrator 16.0.0, SVG Export Plug-In . SVG Version: 6.00 Build 0)  -->
<!DOCTYPE svg PUBLIC "-//W3C//DTD SVG 1.1//EN" "http://www.w3.org/Graphics/SVG/1.1/DTD/svg11.dtd">
<svg version="1.1" id="Calque_1" xmlns="http://www.w3.org/2000/svg" xmlns:xlink="http://www.w3.org/1999/xlink" x="0px" y="0px"
	 width="113.385px" height="141.73px" viewBox="0 0 113.385 141.73" enable-background="new 0 0 113.385 141.73"
	 xml:space="preserve">
<g>
	<g>
		<g>
			<path fill="#2A3962" d="M16.975,95.779V78.923h1.775v16.856H16.975z"/>
			<path fill="#2A3962" d="M32.856,95.779v-7.253c0-1.901-1.426-2.901-3.151-2.901c-1.826,0-2.876,0.875-3.477,1.9v8.254h-1.575
				V84.55h1.476V86c0.775-0.95,2.075-1.775,3.977-1.775c2.4,0,4.352,1.375,4.352,3.977v7.578H32.856z"/>
			<path fill="#2A3962" d="M42.535,85.575c-1.601,0-2.2,0.7-2.2,1.626c0,2.875,6.227,1.35,6.227,5.602
				c0,2.101-1.825,3.301-4.102,3.301c-1.75,0-3.025-0.55-4.227-1.926l1.126-1.025c0.775,1.025,1.825,1.602,3.176,1.602
				c1.701,0,2.526-0.775,2.526-1.727c0-3.176-6.253-1.45-6.253-5.652c0-2,1.551-3.15,3.802-3.15c1.601,0,2.801,0.475,3.901,1.851
				l-1.051,1.025C44.686,86.075,43.786,85.575,42.535,85.575z"/>
			<path fill="#2A3962" d="M51.088,85.9h-2.025V84.55h2.025v-4.026h1.575v4.026h3.377V85.9h-3.377v5.451
				c0,1.701,0.501,3.326,2.701,3.326c0.351,0,0.676-0.049,0.926-0.1l0.225,1.426c-0.375,0.05-0.975,0.1-1.5,0.1
				c-3.177,0-3.927-2.375-3.927-4.701V85.9z"/>
			<path fill="#2A3962" d="M61.067,78.598c0.625,0,1.075,0.45,1.075,1.075c0,0.626-0.45,1.05-1.075,1.05
				c-0.626,0-1.051-0.424-1.051-1.05C60.016,79.048,60.441,78.598,61.067,78.598z M60.292,95.779V84.55h1.575v11.229H60.292z"/>
			<path fill="#2A3962" d="M67.519,85.9h-2.025V84.55h2.025v-4.026h1.575v4.026h3.377V85.9h-3.377v5.451
				c0,1.701,0.501,3.326,2.701,3.326c0.351,0,0.676-0.049,0.926-0.1l0.225,1.426c-0.375,0.05-0.976,0.1-1.5,0.1
				c-3.177,0-3.927-2.375-3.927-4.701V85.9z"/>
			<path fill="#2A3962" d="M76.598,92.053V84.55h1.575v7.277c0,1.801,1.426,2.901,3.126,2.901c1.801,0,3.151-1,3.151-2.826V84.55
				h1.576v7.503c0,2.375-1.651,4.051-4.728,4.051C78.274,96.104,76.598,94.403,76.598,92.053z"/>
			<path fill="#2A3962" d="M91.554,85.9h-2.025V84.55h2.025v-4.026h1.575v4.026h3.377V85.9h-3.377v5.451
				c0,1.701,0.501,3.326,2.701,3.326c0.351,0,0.676-0.049,0.926-0.1l0.225,1.426c-0.375,0.05-0.976,0.1-1.5,0.1
				c-3.177,0-3.927-2.375-3.927-4.701V85.9z"/>
		</g>
	</g>
	<g>
		<g>
			<g>
				<path fill="#006699" d="M72.351,24.818c1.406,0.462,2.314,2.203,2.314,3.309c0,1.764-2.244,2.004-2.244,5.213
					c0,2.646,2.004,4.332,4.49,4.332s4.494-1.846,4.494-4.652C81.406,28.559,77.117,25.711,72.351,24.818L72.351,24.818z"/>
			</g>
			<circle fill="#006699" cx="39.17" cy="15.84" r="4.561"/>
		</g>
		<g>
			<path fill="#006699" d="M24.837,101.14c2.726,0,4.651,1.075,6.077,2.776l-1.301,1.15c-1.325-1.676-2.876-2.377-4.727-2.377
				c-4.026,0-5.827,3.627-5.827,7.203s1.801,7.203,5.827,7.203c1.851,0,3.401-0.701,4.727-2.377l1.301,1.151
				c-1.426,1.7-3.352,2.776-6.077,2.776c-5.202,0-7.603-4.277-7.603-8.729C17.235,105.416,19.635,101.14,24.837,101.14z"/>
			<path fill="#006699" d="M40.018,118.646c-3.626,0-5.402-2.677-5.402-5.978c0-3.302,1.776-5.902,5.402-5.902
				s5.402,2.676,5.402,5.978C45.42,116.045,43.644,118.646,40.018,118.646z M40.018,108.066c-2.651,0-3.701,1.951-3.701,4.627
				c0,2.627,1.05,4.652,3.701,4.652s3.701-1.951,3.701-4.627C43.719,110.093,42.669,108.066,40.018,108.066z"/>
			<path fill="#006699" d="M54.824,118.646c-3.801,0-5.452-2.902-5.452-5.953c0-3.326,1.876-5.927,5.428-5.927
				c1.926,0,3.326,0.726,4.352,1.876l-1.076,1.075c-0.825-0.95-1.851-1.551-3.226-1.551c-2.751,0-3.826,2.051-3.826,4.477
				c0,2.326,1.15,4.603,3.901,4.603c1.275,0,2.476-0.477,3.376-1.502l0.976,1.025C58.201,117.92,56.825,118.646,54.824,118.646z"/>
			<path fill="#006699" d="M71.879,118.32v-7.252c0-1.9-1.375-2.901-3.025-2.901c-1.751,0-2.727,0.876-3.302,1.901v8.252h-1.575
				v-16.855h1.575v7.027c0.726-0.95,1.951-1.726,3.727-1.726c2.326,0,4.177,1.376,4.177,3.977v7.577H71.879z"/>
			<path fill="#006699" d="M79.933,101.14c0.625,0,1.075,0.45,1.075,1.075s-0.45,1.051-1.075,1.051s-1.051-0.426-1.051-1.051
				S79.308,101.14,79.933,101.14z M79.158,118.32v-11.229h1.575v11.229H79.158z"/>
			<path fill="#006699" d="M94.764,118.32v-7.252c0-1.9-1.426-2.901-3.151-2.901c-1.826,0-2.876,0.876-3.477,1.901v8.252h-1.575
				v-11.229h1.476v1.45c0.775-0.95,2.075-1.775,3.977-1.775c2.4,0,4.352,1.376,4.352,3.977v7.577H94.764z"/>
		</g>
		<path fill="#006699" d="M59.223,42.764c0-3.871,0-7.779,0-10.318c0-6.69,3.844-7.627,3.844-7.627
			c-6.799,0-12.311,8.128-12.311,18.152c0,10.025,5.512,18.152,12.311,18.152c0,0-3.844-0.936-3.844-7.625c0-2.543,0-6.449,0-10.319
			V42.764z"/>
		<path fill="#006699" d="M32.372,30.065l0.043,0.007c0,0,5.797,1.053,5.846,6.525l0.02,2.73v21.705h7.119V39.328v-1.59
			c0-0.13,0-0.26,0-0.381C45.399,29.041,32.372,30.065,32.372,30.065z"/>
	</g>
</g>
</svg>
