<svg xmlns="http://www.w3.org/2000/svg" viewBox="0 0 258.22 94.83"><defs><style>.cls-1{fill:#fffffd;}.cls-2{fill:#1dca79;}.cls-3{fill:none;stroke:#fffffd;stroke-miterlimit:10;stroke-width:4px;}</style></defs><title>Fichier 1</title><g id="Calque_2" data-name="Calque 2"><g id="Calque_1-2" data-name="Calque 1"><path class="cls-1" d="M29.68,34H29.5L8.94.71A1.52,1.52,0,0,0,7.66,0H1.51A1.52,1.52,0,0,0,0,1.51V41.32a1.51,1.51,0,0,0,1.51,1.51H4.85a1.51,1.51,0,0,0,1.51-1.51V20.57q0-4.52-.41-10L5.8,8.7H6L26.66,42.12a1.51,1.51,0,0,0,1.28.71h6.24a1.5,1.5,0,0,0,1.5-1.51V29.26a.35.35,0,0,0-.34-.35h-5.9"/><path class="cls-1" d="M73.92,42.06l-3-8.37a1.18,1.18,0,0,0-1.1-.77h-12a1.15,1.15,0,0,0-1.1.78l-3,8.35a1.15,1.15,0,0,1-1.09.78H49a1.17,1.17,0,0,1-1.09-1.57L60.41,7.75A1.16,1.16,0,0,1,61.5,7h4.73a1.16,1.16,0,0,1,1.09.76L79.81,41.26a1.17,1.17,0,0,1-1.09,1.57H75A1.15,1.15,0,0,1,73.92,42.06ZM67.46,27.89a1.16,1.16,0,0,0,1.1-1.54l-2.81-8.18c-.25-.65-.59-1.67-1-3.07S64,12.67,63.84,12a54.5,54.5,0,0,1-1.93,6.57l-2.68,7.76a1.16,1.16,0,0,0,1.1,1.54Z"/><path class="cls-1" d="M118.68,42.83h-5.34a1.17,1.17,0,0,1-1-.55L95.14,14.39h-.2L95.06,16q.34,4.53.34,8.3V41.67a1.16,1.16,0,0,1-1.16,1.16h-3a1.16,1.16,0,0,1-1.16-1.16V8.3a1.16,1.16,0,0,1,1.16-1.16h5.27a1.17,1.17,0,0,1,1,.55l17.16,27.74h.15c0-.37-.1-1.73-.2-4.08s-.14-4.19-.14-5.51V8.3a1.16,1.16,0,0,1,1.16-1.16h3a1.16,1.16,0,0,1,1.16,1.16V41.67A1.16,1.16,0,0,1,118.68,42.83Z"/><path class="cls-1" d="M130.12,52h5.08a1,1,0,0,1,1,1.37L121.89,94.15a1,1,0,0,1-1,.68H115a1,1,0,0,1-1-.69L99.8,53.36a1,1,0,0,1,1-1.36h5a1,1,0,0,1,1,.7l8.7,25.93q.7,1.91,1.49,4.91l0,.06a1,1,0,0,0,2,0c.07-.24.13-.49.2-.75.53-1.95,1-3.4,1.29-4.34l8.7-25.81A1,1,0,0,1,130.12,52Z"/><path class="cls-1" d="M187,94.83H163.55a1,1,0,0,1-1-1V91.09a1,1,0,0,1,.18-.57l16.73-24.78a1,1,0,0,0-.85-1.6H164a1,1,0,0,1-1-1v-3a1,1,0,0,1,1-1h22.5a1,1,0,0,1,1,1v2.76a1,1,0,0,1-.18.58l-16.8,24.72a1,1,0,0,0,.85,1.61H187a1,1,0,0,1,1,1v3A1,1,0,0,1,187,94.83Z"/><path class="cls-1" d="M218.55,94.83H200.41a1,1,0,0,1-1-1V60.16a1,1,0,0,1,1-1h18.14a1,1,0,0,1,1,1V63a1,1,0,0,1-1,1H206.24a1,1,0,0,0-1,1v7.66a1,1,0,0,0,1,1h11.4a1,1,0,0,1,1,1v2.83a1,1,0,0,1-1,1h-11.4a1,1,0,0,0-1,1v9.15a1,1,0,0,0,1,1h12.31a1,1,0,0,1,1,1v2.91A1,1,0,0,1,218.55,94.83Z"/><path class="cls-1" d="M238.12,81.6V93.81a1,1,0,0,1-1,1h-3.79a1,1,0,0,1-1-1V60.16a1,1,0,0,1,1-1h9.06q6.91,0,10.23,2.59c2.21,1.72,3.32,4.33,3.32,7.81,0,4.09-2,7.11-5.89,9a1,1,0,0,0-.41,1.46l8.44,13.22a1,1,0,0,1-.86,1.58H253a1,1,0,0,1-.88-.5l-7.95-13.26a1,1,0,0,0-.88-.5h-4.15A1,1,0,0,0,238.12,81.6Zm0-6.89a1,1,0,0,0,1,1h3q4.08,0,5.91-1.51a5.51,5.51,0,0,0,1.83-4.5,4.85,4.85,0,0,0-2-4.34,10.85,10.85,0,0,0-6-1.32h-2.83a1,1,0,0,0-1,1Z"/><circle class="cls-2" cx="149.35" cy="25.73" r="9"/><circle class="cls-3" cx="149.35" cy="25.73" r="18"/><rect class="cls-2" x="114.35" y="57.73" width="70" height="4" rx="2" ry="2" transform="translate(209.08 -89.61) rotate(90)"/><rect class="cls-2" x="21.68" y="14.24" width="14" height="3" rx="1.5" ry="1.5" transform="translate(57.37 31.48) rotate(-180)"/><rect class="cls-2" x="17.68" y="6.99" width="18" height="3" rx="1.5" ry="1.5" transform="translate(53.37 16.98) rotate(-180)"/><rect class="cls-2" x="27.68" y="21.49" width="8" height="3" rx="1.5" ry="1.5" transform="translate(63.37 45.97) rotate(-180)"/></g></g></svg>