<?xml version="1.0" encoding="utf-8"?>
<!-- Generator: Adobe Illustrator 22.0.1, SVG Export Plug-In . SVG Version: 6.00 Build 0)  -->
<svg version="1.1" id="Calque_1" xmlns="http://www.w3.org/2000/svg" xmlns:xlink="http://www.w3.org/1999/xlink" x="0px" y="0px"
	 viewBox="0 0 264.2 94.8" style="enable-background:new 0 0 264.2 94.8;" xml:space="preserve">
<style type="text/css">
	.st0{fill:#858585;}
	.st1{fill:#468DF3;}
	.st2{fill:none;stroke:#858585;stroke-width:4;stroke-miterlimit:10;}
</style>
<path class="st0" d="M29.7,34h-0.2L8.9,0.7C8.7,0.3,8.2,0,7.7,0H1.5C0.7,0,0,0.7,0,1.5v39.8c0,0.8,0.7,1.5,1.5,1.5h3.3
	c0.8,0,1.5-0.7,1.5-1.5V20.6c0-3-0.1-6.3-0.4-10L5.8,8.7H6l20.6,33.4c0.3,0.4,0.8,0.7,1.3,0.7h6.2c0.8,0,1.5-0.7,1.5-1.5V29.3
	c0-0.2-0.2-0.3-0.3-0.3h-5.9"/>
<path class="st0" d="M73.9,42.1l-3-8.4c-0.2-0.5-0.6-0.8-1.1-0.8h-12c-0.5,0-0.9,0.3-1.1,0.8l-2.9,8.4c-0.2,0.5-0.6,0.8-1.1,0.8H49
	c-0.8,0-1.4-0.8-1.1-1.6L60.4,7.7C60.6,7.3,61,7,61.5,7h4.7c0.5,0,0.9,0.3,1.1,0.8l12.5,33.5c0.3,0.8-0.3,1.6-1.1,1.6H75
	C74.5,42.8,74.1,42.5,73.9,42.1z M67.5,27.9c0.8,0,1.4-0.8,1.1-1.5l-2.8-8.2c-0.2-0.7-0.6-1.7-1-3.1c-0.4-1.4-0.7-2.4-0.9-3.1
	c-0.4,2-1.1,4.2-1.9,6.6l-2.7,7.8c-0.3,0.8,0.3,1.5,1.1,1.5H67.5z"/>
<path class="st0" d="M118.7,42.8h-5.3c-0.4,0-0.8-0.2-1-0.6L95.1,14.4h-0.2l0.1,1.6c0.2,3,0.3,5.8,0.3,8.3v17.4
	c0,0.6-0.5,1.2-1.2,1.2h-3c-0.6,0-1.2-0.5-1.2-1.2V8.3c0-0.6,0.5-1.2,1.2-1.2h5.3c0.4,0,0.8,0.2,1,0.6l17.2,27.7h0.1
	c0-0.4-0.1-1.7-0.2-4.1c-0.1-2.4-0.1-4.2-0.1-5.5V8.3c0-0.6,0.5-1.2,1.2-1.2h3c0.6,0,1.2,0.5,1.2,1.2v33.4
	C119.8,42.3,119.3,42.8,118.7,42.8z"/>
<path class="st0" d="M130.1,52h5.1c0.7,0,1.2,0.7,1,1.4l-14.3,40.8c-0.1,0.4-0.5,0.7-1,0.7H115c-0.4,0-0.8-0.3-1-0.7L99.8,53.4
	c-0.2-0.7,0.3-1.4,1-1.4h5c0.4,0,0.8,0.3,1,0.7l8.7,25.9c0.5,1.3,1,2.9,1.5,4.9c0,0,0,0,0,0.1c0.3,1,1.7,1,2,0
	c0.1-0.2,0.1-0.5,0.2-0.8c0.5-2,1-3.4,1.3-4.3l8.7-25.8C129.3,52.3,129.7,52,130.1,52z"/>
<path class="st0" d="M191.9,94.8h-28.2c-0.7,0-1.2-0.6-1.2-1.2v-3.3c0-0.2,0.1-0.5,0.2-0.7l20.1-29.7c0.6-0.8,0-1.9-1-1.9h-17.5
	c-0.7,0-1.2-0.6-1.2-1.2v-3.5c0-0.7,0.6-1.2,1.2-1.2h27c0.7,0,1.2,0.6,1.2,1.2v3.3c0,0.2-0.1,0.5-0.2,0.7l-20.2,29.7
	c-0.6,0.8,0,1.9,1,1.9h18.7c0.7,0,1.2,0.6,1.2,1.2v3.5C193.2,94.3,192.6,94.8,191.9,94.8z"/>
<path class="st0" d="M224.5,94.8h-18.1c-0.6,0-1-0.5-1-1V60.2c0-0.6,0.5-1,1-1h18.1c0.6,0,1,0.5,1,1V63c0,0.6-0.5,1-1,1h-12.3
	c-0.6,0-1,0.5-1,1v7.7c0,0.6,0.5,1,1,1h11.4c0.6,0,1,0.5,1,1v2.8c0,0.6-0.5,1-1,1h-11.4c-0.6,0-1,0.5-1,1v9.2c0,0.6,0.5,1,1,1h12.3
	c0.6,0,1,0.5,1,1v2.9C225.6,94.4,225.1,94.8,224.5,94.8z"/>
<path class="st0" d="M244.1,81.6v12.2c0,0.6-0.5,1-1,1h-3.8c-0.6,0-1-0.5-1-1V60.2c0-0.6,0.5-1,1-1h9.1c4.6,0,8,0.9,10.2,2.6
	c2.2,1.7,3.3,4.3,3.3,7.8c0,4.1-2,7.1-5.9,9c-0.5,0.3-0.7,1-0.4,1.5l8.4,13.2c0.4,0.7-0.1,1.6-0.9,1.6H259c-0.4,0-0.7-0.2-0.9-0.5
	l-7.9-13.3c-0.2-0.3-0.5-0.5-0.9-0.5h-4.2C244.6,80.6,244.1,81,244.1,81.6z M244.1,74.7c0,0.6,0.5,1,1,1h3c2.7,0,4.7-0.5,5.9-1.5
	c1.2-1,1.8-2.5,1.8-4.5c0-2-0.7-3.5-2-4.3s-3.3-1.3-6-1.3h-2.8c-0.6,0-1,0.5-1,1V74.7z"/>
<circle class="st1" cx="149.3" cy="25.7" r="9"/>
<circle class="st2" cx="149.3" cy="25.7" r="18"/>
<path class="st1" d="M147.3,92.7v-66c0-1.1,0.9-2,2-2l0,0c1.1,0,2,0.9,2,2v66c0,1.1-0.9,2-2,2l0,0C148.2,94.7,147.3,93.8,147.3,92.7
	z"/>
<path class="st1" d="M23.2,14.2h11c0.8,0,1.5,0.7,1.5,1.5v0c0,0.8-0.7,1.5-1.5,1.5h-11c-0.8,0-1.5-0.7-1.5-1.5v0
	C21.7,14.9,22.4,14.2,23.2,14.2z"/>
<path class="st1" d="M19.2,7h15c0.8,0,1.5,0.7,1.5,1.5v0c0,0.8-0.7,1.5-1.5,1.5h-15c-0.8,0-1.5-0.7-1.5-1.5v0
	C17.7,7.7,18.4,7,19.2,7z"/>
<path class="st1" d="M29.2,21.5h5c0.8,0,1.5,0.7,1.5,1.5v0c0,0.8-0.7,1.5-1.5,1.5h-5c-0.8,0-1.5-0.7-1.5-1.5v0
	C27.7,22.2,28.4,21.5,29.2,21.5z"/>
</svg>
